<?xml version="1.0" encoding="UTF-8"?>
<svg id="Layer_2" data-name="Layer 2" xmlns="http://www.w3.org/2000/svg" viewBox="0 0 782.38 484.27">
  <defs>
    <style>
      .cls-1 {
        opacity: .03;
        stroke: #e4eedf;
        stroke-width: 27.11px;
      }

      .cls-1, .cls-2, .cls-3, .cls-4, .cls-5, .cls-6, .cls-7, .cls-8, .cls-9, .cls-10 {
        fill: none;
        stroke-miterlimit: 10;
      }

      .cls-2 {
        opacity: .27;
        stroke: #0867db;
        stroke-width: 4px;
      }

      .cls-3 {
        opacity: .18;
        stroke: #5a9add;
        stroke-width: 12.67px;
      }

      .cls-4 {
        opacity: .12;
        stroke: #91bbde;
        stroke-width: 18.44px;
      }

      .cls-5 {
        opacity: 0;
        stroke: #ffffe0;
        stroke-width: 30px;
      }

      .cls-6 {
        opacity: .21;
        stroke: #3f89dc;
        stroke-width: 9.78px;
      }

      .cls-7 {
        opacity: .06;
        stroke: #c8dddf;
        stroke-width: 24.22px;
      }

      .cls-8 {
        opacity: .24;
        stroke: #2378dc;
        stroke-width: 6.89px;
      }

      .cls-9 {
        opacity: .09;
        stroke: #adccde;
        stroke-width: 21.33px;
      }

      .cls-10 {
        opacity: .15;
        stroke: #76abdd;
        stroke-width: 15.56px;
      }
    </style>
  </defs>
  <g id="Layer_1-2" data-name="Layer 1">
    <g>
      <path class="cls-2" d="M364.89,254.03c-2.61-4.62,2.5-10.94,11.4-14.1s18.24-1.99,20.84,2.63-2.5,10.94-11.4,14.1-18.24,1.99-20.84-2.63Z"/>
      <path class="cls-8" d="M327.71,266.97c-8.8-15.61,8.43-36.92,38.5-47.62,30.06-10.69,61.57-6.71,70.37,8.89,8.8,15.61-8.43,36.92-38.5,47.62-30.06,10.69-61.57,6.71-70.37-8.89Z"/>
      <path class="cls-6" d="M290.53,279.92c-15-26.59,14.37-62.91,65.6-81.13s104.91-11.44,119.9,15.15c15,26.59-14.37,62.91-65.6,81.13s-104.91,11.44-119.9-15.15Z"/>
      <path class="cls-3" d="M253.34,292.86c-21.19-37.57,20.31-88.9,92.69-114.65,72.38-25.75,148.24-16.16,169.43,21.41,21.19,37.57-20.31,88.9-92.69,114.65-72.38,25.75-148.24,16.16-169.43-21.41Z"/>
      <path class="cls-10" d="M216.16,305.8c-27.39-48.55,26.24-114.89,119.79-148.16,93.54-33.27,191.58-20.88,218.96,27.67,27.39,48.55-26.24,114.89-119.79,148.16-93.54,33.27-191.58,20.88-218.96-27.67Z"/>
      <path class="cls-4" d="M178.98,318.75c-33.58-59.54,32.18-140.88,146.88-181.67,114.7-40.8,234.91-25.61,268.49,33.93,33.58,59.54-32.18,140.88-146.88,181.67-114.7,40.8-234.91,25.61-268.49-33.93Z"/>
      <path class="cls-9" d="M141.8,331.69c-39.78-70.52,38.12-166.86,173.98-215.19,135.86-48.32,278.25-30.33,318.02,40.19,39.78,70.52-38.12,166.86-173.98,215.19-135.86,48.32-278.25,30.33-318.02-40.19Z"/>
      <path class="cls-7" d="M104.61,344.63c-45.97-81.5,44.05-192.85,201.08-248.7,157.02-55.85,321.58-35.06,367.55,46.45,45.97,81.5-44.05,192.85-201.08,248.7-157.02,55.85-321.58,35.06-367.55-46.45Z"/>
      <path class="cls-1" d="M67.43,357.58c-52.17-92.49,49.99-218.84,228.17-282.22,178.18-63.38,364.92-39.78,417.08,52.71,52.17,92.49-49.99,218.84-228.17,282.22-178.18,63.38-364.92,39.78-417.08-52.71Z"/>
      <path class="cls-5" d="M30.25,370.52C-28.11,267.05,86.17,125.69,285.52,54.79c199.34-70.9,408.25-44.5,466.61,58.97,58.36,103.47-55.93,244.83-255.27,315.73-199.34,70.9-408.25,44.5-466.61-58.97Z"/>
    </g>
  </g>
</svg>