<?xml version="1.0" encoding="UTF-8"?>
<svg id="Layer_2" data-name="Layer 2" xmlns="http://www.w3.org/2000/svg" viewBox="0 0 799.6 494.67">
  <defs>
    <style>
      .cls-1 {
        opacity: .24;
        stroke: #212121;
        stroke-width: 6.89px;
      }

      .cls-1, .cls-2, .cls-3, .cls-4, .cls-5, .cls-6, .cls-7, .cls-8, .cls-9, .cls-10 {
        fill: none;
        stroke-miterlimit: 10;
      }

      .cls-2 {
        opacity: .03;
        stroke: #545454;
        stroke-width: 27.11px;
      }

      .cls-3 {
        opacity: 0;
        stroke: #5b5b5b;
        stroke-width: 30px;
      }

      .cls-4 {
        opacity: .06;
        stroke: #4d4d4d;
        stroke-width: 24.22px;
      }

      .cls-5 {
        opacity: .12;
        stroke: #3e3e3e;
        stroke-width: 18.44px;
      }

      .cls-6 {
        opacity: .15;
        stroke: #373737;
        stroke-width: 15.56px;
      }

      .cls-7 {
        opacity: .27;
        stroke: #1a1a1a;
        stroke-width: 4px;
      }

      .cls-8 {
        opacity: .18;
        stroke: #303030;
        stroke-width: 12.67px;
      }

      .cls-9 {
        opacity: .21;
        stroke: #282828;
        stroke-width: 9.78px;
      }

      .cls-10 {
        opacity: .09;
        stroke: #454545;
        stroke-width: 21.33px;
      }
    </style>
  </defs>
  <g id="Layer_1-2" data-name="Layer 1">
    <g>
      <path class="cls-7" d="M376.35,365.27c-12.51-22.18,11.99-52.47,54.71-67.67,42.72-15.2,87.49-9.54,100,12.64,12.51,22.18-11.99,52.47-54.71,67.67-42.72,15.2-87.49,9.54-100-12.64Z"/>
      <path class="cls-1" d="M337.93,366.75c-17.75-31.47,17.01-74.47,77.64-96.03,60.63-21.57,124.17-13.54,141.92,17.93,17.75,31.47-17.01,74.47-77.64,96.03-60.63,21.57-124.17,13.54-141.92-17.93Z"/>
      <path class="cls-9" d="M299.52,368.24c-22.99-40.77,22.03-96.46,100.58-124.4,78.54-27.94,160.85-17.53,183.84,23.23s-22.03,96.46-100.58,124.4c-78.54,27.94-160.85,17.53-183.84-23.23Z"/>
      <path class="cls-8" d="M261.1,369.73c-28.24-50.06,27.06-118.46,123.51-152.76,96.45-34.31,197.53-21.53,225.77,28.53,28.24,50.06-27.06,118.46-123.51,152.76-96.45,34.31-197.53,21.53-225.77-28.53Z"/>
      <path class="cls-6" d="M222.68,371.22c-33.48-59.36,32.08-140.45,146.44-181.13,114.36-40.68,234.21-25.53,267.69,33.83,33.48,59.36-32.08,140.45-146.44,181.13-114.36,40.68-234.21,25.53-267.69-33.83Z"/>
      <path class="cls-5" d="M184.27,372.71c-38.72-68.65,37.11-162.45,169.38-209.49,132.27-47.05,270.88-29.53,309.61,39.12,38.72,68.65-37.11,162.45-169.38,209.49-132.27,47.05-270.88,29.53-309.61-39.12Z"/>
      <path class="cls-10" d="M145.85,374.19c-43.97-77.95,42.13-184.44,192.31-237.86,150.18-53.42,307.56-33.53,351.53,44.42,43.97,77.95-42.13,184.44-192.31,237.86-150.18,53.42-307.56,33.53-351.53-44.42Z"/>
      <path class="cls-4" d="M107.43,375.68c-49.21-87.25,47.16-206.44,215.24-266.23,168.09-59.79,344.24-37.53,393.45,49.72,49.21,87.25-47.16,206.44-215.24,266.23-168.09,59.79-344.24,37.53-393.45-49.72Z"/>
      <path class="cls-2" d="M69.01,377.17c-54.45-96.54,52.18-228.43,238.18-294.59,186-66.16,380.92-41.52,435.37,55.02,54.45,96.54-52.18,228.43-238.18,294.59-186,66.16-380.92,41.52-435.37-55.02Z"/>
      <path class="cls-3" d="M30.6,378.66C-29.1,272.82,87.8,128.23,291.71,55.7c203.9-72.53,417.6-45.52,477.29,60.32,59.7,105.84-57.21,250.43-261.11,322.96-203.9,72.53-417.6,45.52-477.29-60.32Z"/>
    </g>
  </g>
</svg>