<?xml version="1.0" encoding="UTF-8"?>
<svg id="Layer_2" data-name="Layer 2" xmlns="http://www.w3.org/2000/svg" xmlns:xlink="http://www.w3.org/1999/xlink" viewBox="0 0 1080 898.86">
  <defs>
    <style>
      .cls-1 {
        fill: url(#linear-gradient-8);
      }

      .cls-2 {
        fill: url(#linear-gradient-7);
      }

      .cls-3 {
        fill: url(#linear-gradient-5);
      }

      .cls-4 {
        fill: url(#linear-gradient-6);
      }

      .cls-5 {
        fill: url(#linear-gradient-9);
      }

      .cls-6 {
        fill: url(#linear-gradient-4);
      }

      .cls-7 {
        fill: url(#linear-gradient-3);
      }

      .cls-8 {
        fill: url(#linear-gradient-2);
      }

      .cls-9 {
        fill: url(#linear-gradient);
      }

      .cls-10 {
        fill: url(#linear-gradient-10);
      }

      .cls-11 {
        fill: url(#linear-gradient-11);
      }
    </style>
    <linearGradient id="linear-gradient" x1="-57.25" y1="259" x2="396.63" y2="639.86" gradientUnits="userSpaceOnUse">
      <stop offset="0" stop-color="#ffed92"/>
      <stop offset=".5" stop-color="#ffd400"/>
      <stop offset="1" stop-color="#ffed92"/>
    </linearGradient>
    <linearGradient id="linear-gradient-2" x1="-99.72" y1="315.37" x2="219.82" y2="583.5" xlink:href="#linear-gradient"/>
    <linearGradient id="linear-gradient-3" x1="111.74" y1="315.37" x2="431.28" y2="583.49" gradientUnits="userSpaceOnUse">
      <stop offset="0" stop-color="#ffed92"/>
      <stop offset=".5" stop-color="#ffd400"/>
      <stop offset="1" stop-color="#ffed92"/>
    </linearGradient>
    <linearGradient id="linear-gradient-4" x1="129.87" y1="259.01" x2="583.74" y2="639.85" xlink:href="#linear-gradient-3"/>
    <linearGradient id="linear-gradient-5" x1="298.85" y1="315.37" x2="618.38" y2="583.49" xlink:href="#linear-gradient-3"/>
    <linearGradient id="linear-gradient-6" x1="316.97" y1="259.01" x2="770.85" y2="639.86" xlink:href="#linear-gradient-3"/>
    <linearGradient id="linear-gradient-7" x1="485.94" y1="315.37" x2="805.49" y2="583.5" xlink:href="#linear-gradient-3"/>
    <linearGradient id="linear-gradient-8" x1="504.08" y1="259" x2="957.97" y2="639.86" xlink:href="#linear-gradient-3"/>
    <linearGradient id="linear-gradient-9" x1="673.06" y1="315.37" x2="992.61" y2="583.49" xlink:href="#linear-gradient-3"/>
    <linearGradient id="linear-gradient-10" x1="691.2" y1="259" x2="1145.08" y2="639.86" xlink:href="#linear-gradient-3"/>
    <linearGradient id="linear-gradient-11" x1="860.18" y1="315.37" x2="1179.72" y2="583.49" xlink:href="#linear-gradient-3"/>
  </defs>
  <g id="Layer_1-2" data-name="Layer 1">
    <g>
      <path class="cls-9" d="M211.46,449.42c0,110.78,10.8,208.28,27.16,264.79-15.52,111.95-40.61,184.66-68.92,184.66-29.99,0-56.35-81.5-71.55-204.75-8.69-70.39-13.75-154.43-13.75-244.69s5.06-174.28,13.75-244.66C113.34,81.5,139.7,0,169.69,0c28.31,0,53.4,72.71,68.92,184.66-16.36,56.51-27.16,154-27.16,264.75Z"/>
      <path class="cls-8" d="M84.39,449.42c0,90.26,5.06,174.31,13.75,244.69-10.37,44.84-23.64,71.73-38.09,71.73C26.88,765.84,0,624.18,0,449.42S26.88,133.02,60.05,133.02c14.45,0,27.72,26.89,38.09,71.73-8.69,70.38-13.75,154.43-13.75,244.66Z"/>
      <path class="cls-7" d="M292.67,153.24c-13.18,79.08-21.17,182.7-21.17,296.18s7.99,217.13,21.17,296.21v.03c-6.6,13.05-13.72,20.18-21.17,20.18-12.14,0-23.44-18.99-32.9-51.64-16.36-56.51-27.16-154-27.16-264.79s10.8-208.24,27.16-264.75c9.46-32.65,20.76-51.64,32.9-51.64,7.44,0,14.56,7.14,21.17,20.18v.03Z"/>
      <path class="cls-6" d="M425.71,184.75c-16.33,56.54-27.13,153.97-27.13,264.66s10.8,208.15,27.13,264.69v.03c-15.49,111.98-40.59,184.72-68.9,184.72-25.57,0-48.53-59.3-64.13-153.21v-.03c-13.18-79.08-21.17-182.73-21.17-296.21s7.99-217.1,21.17-296.18v-.03C308.28,59.3,331.24,0,356.81,0c28.31,0,53.4,72.74,68.9,184.72v.03Z"/>
      <path class="cls-3" d="M458.62,449.42c0,113.48,7.99,217.1,21.14,296.18-6.56,13.08-13.7,20.25-21.14,20.25-12.16,0-23.46-19.02-32.92-51.7v-.03c-16.33-56.54-27.13-153.97-27.13-264.69s10.8-208.12,27.13-264.66v-.03c9.46-32.68,20.76-51.7,32.92-51.7,7.44,0,14.59,7.17,21.14,20.25-13.16,79.08-21.14,182.7-21.14,296.15Z"/>
      <path class="cls-4" d="M612.82,184.75c-16.33,56.54-27.13,153.97-27.13,264.66s10.8,208.15,27.13,264.69v.03c-15.49,111.98-40.59,184.72-68.92,184.72-25.57,0-48.5-59.3-64.13-153.27-13.16-79.08-21.14-182.7-21.14-296.18s7.99-217.07,21.14-296.15C495.4,59.3,518.33,0,543.9,0c28.34,0,53.43,72.74,68.92,184.72v.03Z"/>
      <path class="cls-2" d="M666.88,153.24c-13.18,79.08-21.17,182.7-21.17,296.18s7.99,217.13,21.17,296.21v.03c-6.6,13.05-13.72,20.18-21.17,20.18-12.16,0-23.46-19.02-32.9-51.7v-.03c-16.33-56.54-27.13-153.97-27.13-264.69s10.8-208.12,27.13-264.66v-.03c9.44-32.68,20.73-51.7,32.9-51.7,7.44,0,14.56,7.14,21.17,20.18v.03Z"/>
      <path class="cls-1" d="M772.78,449.42c0,110.78,10.8,208.28,27.16,264.79-15.49,111.95-40.59,184.66-68.92,184.66-25.57,0-48.5-59.3-64.13-153.21v-.03c-13.18-79.08-21.17-182.73-21.17-296.21s7.99-217.1,21.17-296.18v-.03C682.51,59.3,705.45,0,731.02,0c28.34,0,53.43,72.71,68.92,184.66-16.36,56.51-27.16,154-27.16,264.75Z"/>
      <path class="cls-5" d="M854,153.24c-13.18,79.08-21.17,182.7-21.17,296.18s7.99,217.13,21.17,296.21v.03c-6.6,13.05-13.73,20.18-21.17,20.18-12.14,0-23.44-18.99-32.9-51.64-16.36-56.51-27.16-154-27.16-264.79s10.8-208.24,27.16-264.75c9.46-32.65,20.76-51.64,32.9-51.64,7.44,0,14.56,7.14,21.17,20.18v.03Z"/>
      <path class="cls-10" d="M959.9,449.42c0,110.78,10.8,208.28,27.16,264.79-15.49,111.95-40.59,184.66-68.92,184.66-25.57,0-48.5-59.3-64.13-153.21v-.03c-13.18-79.08-21.17-182.73-21.17-296.21s7.99-217.1,21.17-296.18v-.03C869.63,59.3,892.57,0,918.13,0c28.34,0,53.43,72.71,68.92,184.66-16.36,56.51-27.16,154-27.16,264.75Z"/>
      <path class="cls-11" d="M1080,449.42c0,174.77-26.88,316.43-60.05,316.43-12.14,0-23.44-18.99-32.9-51.64-16.36-56.51-27.16-154-27.16-264.79s10.8-208.24,27.16-264.75c9.46-32.65,20.76-51.64,32.9-51.64,33.17,0,60.05,141.66,60.05,316.39Z"/>
    </g>
  </g>
</svg>